<?xml version="1.0" encoding="UTF-8"?>
<svg id="Layer_2" data-name="Layer 2" xmlns="http://www.w3.org/2000/svg" viewBox="0 0 1574.94 718.12">
  <defs>
    <style>
      .cls-1 {
        fill: #fff;
      }
    </style>
  </defs>
  <g id="Base">
    <path class="cls-1" d="m176.96,379.46l-4.16,6.47,11.1,5.55-5.55,9.71-8.78,8.78-9.71,8.78-10.63,8.32-11.1,5.55-15.26,5.09-14.33,4.07h-22.19l-7.98-2.45-5.72-.87-7.11-2.43-5.55-1.91-5.55-2.25-5.89-3.81-5.03-3.81-6.07-3.99-4.68-4.51-3.81-3.99-4.16-3.47-2.08-1.04L0,426.5l5.89,6.07,4.33,3.99,5.37,5.22,5.2,4.14,6.94,4.85,6.24,3.81,4.33,2.77,11.27,4.85,7.46,2.6,8.32,2.6,7.11,1.91,4.85,1.04,9.02,1.56h8.67l-21.85,6.59,1.91,5.89,33.11-9.36,49.07,60.85,17.16,21.5,9.48,10.23,13.06,13.35,12.31,12.48,13.52,10.92,15.26,13.18,11.62,9.19,11.44,7.8,14.74,10.06,9.02,5.55,8.32,4.85,12.48,6.76,10.58,5.89,12.31,6.24,13.35,5.55,10.75,4.68,11.62,4.51,15.95,6.07,11.96,3.81,12.83,3.47,11.96,3.12,7.46,2.08,9.36,1.39,11.62,2.77,12.31,1.39,10.58,1.73,11.79,1.91,9.71.87,16.82.87h45.77l18.03-1.04,11.62-1.39,16.47-1.56,18.2-3.12,29.65-4.85,50.63-7.98,39.7-6.24,38.66-5.89,74.38-12.14,39.36-6.24,31.21-4.68,47.85-7.8,33.46-4.85,23.58-3.64,21.15-3.99,14.74-30.86,275.15-42.3-8.32-54.09,228.16-36.24,18.9-39.18-155.17-76.29-239.26,37.1,82.01-169.21,62.07,29.99,3.29-6.76-13.18-6.41,61.03-124.48-95.7-47.16,11.79-23.75L1182.94,0l-2.95,5.89,56,27.22-9.54,23.06-52.36-24.27-28.4,57.23-27.95,56.33-5.37-2.25-2.43,5.55,5.89,3.64-15.6,34.5-5.55-2.77-1.21,2.43-11.96-3.64-11.1-2.25-12.83-1.73h-13.87l-14.91,1.56-15.26,4.68-16.12,6.94-9.88,6.76-12.31,10.4-9.54,10.92-9.36,14.74-5.55,13-2.77,9.88-2.43,14.91s-.87,9.54-.87,10.06.87,17.34.87,17.34l2.25,10.23,4.33,11.1,3.47,8.32,6.24,10.92,6.76,9.02,11.1,11.62,5.37,4.33,6.07,4.68,6.07,3.47,3.29,2.25-.69,3.64,3.99,2.25-16.47,33.63,2.95,21.85-315.54,50.11,6.24,37.45-103.16,14.91-14.22,2.08-13.52,1.39-10.75.52h-15.6l-14.91-.17-14.91-.87s-14.22-2.25-14.74-2.25-18.55-3.47-19.24-3.47-20.46-5.55-20.46-5.55l-25.66-9.36-15.43-7.98-12.83-6.41-11.1-6.76-13.18-8.67-16.47-12.31-13-10.4-30.51-30.51,6.59-6.07-31.9-39.7-19.76,15.95-16.64-19.76-18.2,15.95-44.44-26.06Z"/>
  </g>
</svg>