<?xml version="1.0" encoding="UTF-8"?>
<svg id="Layer_2" data-name="Layer 2" xmlns="http://www.w3.org/2000/svg" viewBox="0 0 1577.74 720.45">
  <defs>
    <style>
      .cls-1 {
        fill: #fff;
      }

      .cls-1, .cls-2 {
        stroke: #000;
        stroke-miterlimit: 10;
        stroke-width: 2px;
      }

      .cls-2 {
        fill: #771e7e;
      }
    </style>
  </defs>
  <g id="Base">
    <path class="cls-2" d="m178.42,380.79l-4.16,6.47,11.1,5.55-5.55,9.71-8.78,8.78-9.71,8.78-10.63,8.32-11.1,5.55-15.26,5.09-14.33,4.07h-22.19l-7.98-2.45-5.72-.87-7.11-2.43-5.55-1.91-5.55-2.25-5.89-3.81-5.03-3.81-6.07-3.99-4.68-4.51-3.81-3.99-4.16-3.47-2.08-1.04-22.71,19.24,5.89,6.07,4.33,3.99,5.37,5.22,5.2,4.14,6.94,4.85,6.24,3.81,4.33,2.77,11.27,4.85,7.46,2.6,8.32,2.6,7.11,1.91,4.85,1.04,9.02,1.56h8.67l-21.85,6.59,1.91,5.89,33.11-9.36,49.07,60.85,17.16,21.5,9.48,10.23,13.06,13.35,12.31,12.48,13.52,10.92,15.26,13.18,11.62,9.19,11.44,7.8,14.74,10.06,9.02,5.55,8.32,4.85,12.48,6.76,10.58,5.89,12.31,6.24,13.35,5.55,10.75,4.68,11.62,4.51,15.95,6.07,11.96,3.81,12.83,3.47,11.96,3.12,7.46,2.08,9.36,1.39,11.62,2.77,12.31,1.39,10.58,1.73,11.79,1.91,9.71.87,16.82.87h45.77l18.03-1.04,11.62-1.39,16.47-1.56,18.2-3.12,29.65-4.85,50.63-7.98,39.7-6.24,38.66-5.89,74.38-12.14,39.36-6.24,31.21-4.68,47.85-7.8,33.46-4.85,23.58-3.64,21.15-3.99,14.74-30.86,275.15-42.3-8.32-54.09,228.16-36.24,18.9-39.18-155.17-76.29-239.26,37.1,82.01-169.21,62.07,29.99,3.29-6.76-13.18-6.41,61.03-124.48-95.7-47.16,11.79-23.75L1184.4,1.33l-2.95,5.89,56,27.22-9.54,23.06-52.36-24.27-28.4,57.23-27.95,56.33-5.37-2.25-2.43,5.55,5.89,3.64-15.6,34.5-5.55-2.77-1.21,2.43-11.96-3.64-11.1-2.25-12.83-1.73h-13.87l-14.91,1.56-15.26,4.68-16.12,6.94-9.88,6.76-12.31,10.4-9.54,10.92-9.36,14.74-5.55,13-2.77,9.88-2.43,14.91s-.87,9.54-.87,10.06.87,17.34.87,17.34l2.25,10.23,4.33,11.1,3.47,8.32,6.24,10.92,6.76,9.02,11.1,11.62,5.37,4.33,6.07,4.68,6.07,3.47,3.29,2.25-.69,3.64,3.99,2.25-16.47,33.63,2.95,21.85-315.54,50.11,6.24,37.45-103.16,14.91-14.22,2.08-13.52,1.39-10.75.52h-15.6l-14.91-.17-14.91-.87s-14.22-2.25-14.74-2.25-18.55-3.47-19.24-3.47-20.46-5.55-20.46-5.55l-25.66-9.36-15.43-7.98-12.83-6.41-11.1-6.76-13.18-8.67-16.47-12.31-13-10.4-30.51-30.51,6.59-6.07-31.9-39.7-19.76,15.95-16.64-19.76-18.2,15.95-44.44-26.06Z"/>
  </g>
  <g id="Rooms">
    <polygon id="N105" class="cls-1" points="273.32 541.22 318.91 490.25 329.66 498.92 339.55 507.42 350.47 514.87 360.18 520.94 369.71 526.31 379.07 532.21 390.86 538.8 387.05 546.6 361.74 598.96 343.36 589.42 332.61 583.53 315.1 572.43 297.42 560.3 280.77 547.12 273.32 541.22"/>
    <polygon id="N106" class="cls-1" points="387.05 546.6 361.74 598.96 369.89 602.6 383.76 608.15 389.65 610.75 395.89 613.17 402.83 615.6 411.84 618.9 419.3 620.8 426.41 622.88 434.03 625.14 442.36 627.04 448.95 628.43 454.67 629.65 461.95 631.38 473.56 564.8 463.68 563.24 452.76 560.64 444.26 558.73 436.12 555.96 428.31 553.88 419.99 550.76 414.62 548.51 408.03 545.9 403.87 544.6 390.86 538.8 387.05 546.6"/>
    <polygon id="N107" class="cls-1" points="461.95 631.38 473.56 564.8 482.64 566.65 494.31 568.04 505.87 569.08 515.81 569.54 526.79 570 535.46 570.24 542.97 570.12 547.36 570.24 561.99 569.83 565.63 635.77 557.3 636.23 552.1 636.23 540.66 636.81 533.03 636.81 523.32 636.81 514.31 636.81 501.82 636.12 492.58 635.54 481.25 634.27 470.04 633 461.95 631.38"/>
    <polygon id="N108" class="cls-1" points="565.63 635.77 561.99 569.83 651.45 555.79 662.2 621.67 565.63 635.77"/>
    <polyline id="N109" class="cls-1" points="651.45 555.79 662.2 621.67 842.68 592.54 832.28 525.97 652.49 555.79"/>
    <polygon id="N114" class="cls-1" points="842.68 462.44 859.21 590.69 954.68 575.9 999.53 482.51 991.78 438.76 842.68 462.44"/>
    <polygon id="NS101c" class="cls-1" points="964.39 568.04 1034.2 557.64 1028.19 514.73 987.74 520.88 964.39 568.04"/>
    <polygon id="NS101a" class="cls-1" points="987.74 520.88 1007.39 481.81 1054.78 474.88 1059.4 509.78 1028.18 514.62 987.74 520.88"/>
    <polygon id="NS101b" class="cls-1" points="1071.88 508.17 1028.18 514.62 1034.2 557.64 1077.89 550.93 1071.88 508.17"/>
    <polygon id="NS101" class="cls-1" points="1007.39 481.81 997.22 418.94 1013.17 386.11 1019.87 388.19 1028.18 390.27 1037.44 392.12 1044.84 392.58 1050.62 393.05 1056.63 393.05 1057.78 393.05 1066.8 445.98 1086.91 443.11 1090.61 469.56 1007.39 481.81"/>
    <polygon id="NS105" class="cls-1" points="1110.95 472.1 1114.42 499.61 1140.77 495.91 1137.3 468.41 1110.95 472.1"/>
    <polygon id="NS106" class="cls-1" points="1140.77 495.91 1137.3 468.41 1163.43 464.25 1167.59 492.45 1140.77 495.91"/>
    <polygon id="NS107" class="cls-1" points="1114.42 499.61 1167.59 492.45 1163.43 464.25 1179.38 461.7 1189.55 532.9 1120.89 543.77 1114.42 499.61"/>
    <polygon id="NS115" class="cls-1" points="1179.38 461.7 1189.55 532.9 1316.69 512.79 1305.13 441.59 1179.38 461.7"/>
    <polygon id="NS120" class="cls-1" points="1305.13 441.59 1316.69 512.79 1380.72 502.73 1370.32 430.73 1305.13 441.59"/>
    <polygon id="NS121" class="cls-1" points="1370.32 430.73 1375.88 469.2 1432.04 460.55 1426.03 421.48 1370.32 430.73"/>
    <polygon id="NS122" class="cls-1" points="1375.88 469.2 1380.72 502.73 1420.02 495.91 1415.02 463.17 1375.88 469.2"/>
    <polygon id="N118" class="cls-1" points="1012.94 230.53 1026.46 202.79 1112.8 245.1 1106.21 257.58 1130.83 269.37 1109.33 312.37 981.73 250.65 997.22 222.56 1012.94 230.53"/>
    <polygon id="N117" class="cls-1" points="981.71 250.66 1109.33 312.35 1088.54 356.39 1063.92 345.3 1056.3 360.39 969.25 316.89 976.53 301.98 959.88 294.71 981.71 250.66"/>
    <polygon id="N129" class="cls-1" points="1168.66 100.69 1161.69 116.11 1166.55 118.88 1146.78 160.14 1119.21 146.79 1147.16 90.47 1168.66 100.69"/>
    <polygon id="N128" class="cls-1" points="1147.16 90.47 1175.56 33.23 1210.45 49.41 1182.84 107.44 1147.16 90.47"/>
    <polygon id="N127" class="cls-1" points="1210.45 49.41 1244.31 64.22 1215.78 123.04 1182.84 107.44 1210.45 49.41"/>
    <polygon id="N125" class="cls-1" points="1215.78 123.04 1249.07 139.34 1278.21 78.93 1244.31 64.22 1215.78 123.04"/>
    <polygon id="N123" class="cls-1" points="1278.36 78.86 1321.4 97.93 1301.05 136.74 1259.42 117.61 1278.36 78.86"/>
    <polygon id="N122" class="cls-1" points="1308.26 123.04 1321.35 97.78 1377.2 125.3 1355.9 168.74 1314.96 149.57 1323.62 130.67 1308.26 123.04"/>
    <polygon id="N121" class="cls-1" points="1314.96 149.57 1355.9 168.74 1339.24 202.71 1299.01 183.38 1314.96 149.57"/>
    <polygon id="N124" class="cls-1" points="1249.07 139.34 1259.48 117.77 1301.2 136.68 1290.41 160.14 1249.07 139.34"/>
    <polygon id="N126" class="cls-1" points="1181.98 126.68 1233.82 152.17 1214.57 194.3 1160.65 168.74 1181.98 126.68"/>
  </g>
  <g id="Unknown_Rooms" data-name="Unknown Rooms">
    <polygon class="cls-1" points="1437.59 492.91 1460.94 489.21 1457.7 465.4 1434.12 469.2 1437.59 492.91"/>
    <polygon class="cls-1" points="1460.94 489.21 1456.55 453.15 1526.36 443.11 1532.14 478.12 1460.94 489.21"/>
    <polygon class="cls-1" points="1526.36 443.11 1523.82 421.48 1475.27 398.59 1449.44 401.82 1456.55 453.15 1526.36 443.11"/>
    <polygon class="cls-1" points="1368.24 416.62 1363.15 379.41 1339.81 383.34 1345.12 420.55 1368.24 416.62"/>
    <polygon class="cls-1" points="1345.12 420.55 1339.81 383.34 1311.37 387.73 1317.61 424.72 1345.12 420.55"/>
    <polygon class="cls-1" points="1311.37 387.73 1295.42 390.5 1301.2 427.49 1317.61 424.72 1311.37 387.73"/>
    <polygon class="cls-1" points="1295.42 390.5 1266.29 395.13 1268.38 412 1278.32 411.08 1280.86 430.73 1301.2 427.49 1295.42 390.5"/>
    <polygon class="cls-1" points="1268.38 412 1278.32 411.08 1280.86 430.73 1270.92 432.11 1268.38 412"/>
    <polygon class="cls-1" points="1266.29 395.13 1248.03 398.13 1252.42 435.12 1270.92 432.11 1266.29 395.13"/>
  </g>
</svg>