<?xml version="1.0" encoding="UTF-8"?>
<svg id="Layer_1" data-name="Layer 1" xmlns="http://www.w3.org/2000/svg" viewBox="0 0 1574.94 718.12">
  <defs>
    <style>
      .cls-1 {
        fill: #fff;
      }

      .cls-2 {
        fill: #771e7e;
      }
    </style>
  </defs>
  <path class="cls-2" d="m176.96,379.46l-4.16,6.47,11.1,5.55-5.55,9.71-8.78,8.78-9.71,8.78-10.63,8.32-11.1,5.55-15.26,5.09-14.33,4.07h-22.19l-7.98-2.45-5.72-.87-7.11-2.43-5.55-1.91-5.55-2.25-5.89-3.81-5.03-3.81-6.07-3.99-4.68-4.51-3.81-3.99-4.16-3.47-2.08-1.04L0,426.5l5.89,6.07,4.33,3.99,5.37,5.22,5.2,4.14,6.94,4.85,6.24,3.81,4.33,2.77,11.27,4.85,7.46,2.6,8.32,2.6,7.11,1.91,4.85,1.04,9.02,1.56h8.67l-21.85,6.59,1.91,5.89,33.11-9.36,49.07,60.85,17.16,21.5,9.48,10.23,13.06,13.35,12.31,12.48,13.52,10.92,15.26,13.18,11.62,9.19,11.44,7.8,14.74,10.06,9.02,5.55,8.32,4.85,12.48,6.76,10.58,5.89,12.31,6.24,13.35,5.55,10.75,4.68,11.62,4.51,15.95,6.07,11.96,3.81,12.83,3.47,11.96,3.12,7.46,2.08,9.36,1.39,11.62,2.77,12.31,1.39,10.58,1.73,11.79,1.91,9.71.87,16.82.87h45.77l18.03-1.04,11.62-1.39,16.47-1.56,18.2-3.12,29.65-4.85,50.63-7.98,39.7-6.24,38.66-5.89,74.38-12.14,39.36-6.24,31.21-4.68,47.85-7.8,33.46-4.85,23.58-3.64,21.15-3.99,14.74-30.86,275.15-42.3-8.32-54.09,228.16-36.24,18.9-39.18-155.17-76.29-239.26,37.1,82.01-169.21,62.07,29.99,3.29-6.76-13.18-6.41,61.03-124.48-95.7-47.16,11.79-23.75L1182.94,0l-2.95,5.89,56,27.22-9.54,23.06-52.36-24.27-28.4,57.23-27.95,56.33-5.37-2.25-2.43,5.55,5.89,3.64-15.6,34.5-5.55-2.77-1.21,2.43-11.96-3.64-11.1-2.25-12.83-1.73h-13.87l-14.91,1.56-15.26,4.68-16.12,6.94-9.88,6.76-12.31,10.4-9.54,10.92-9.36,14.74-5.55,13-2.77,9.88-2.43,14.91s-.87,9.54-.87,10.06.87,17.34.87,17.34l2.25,10.23,4.33,11.1,3.47,8.32,6.24,10.92,6.76,9.02,11.1,11.62,5.37,4.33,6.07,4.68,6.07,3.47,3.29,2.25-.69,3.64,3.99,2.25-16.47,33.63,2.95,21.85-315.54,50.11,6.24,37.45-103.16,14.91-14.22,2.08-13.52,1.39-10.75.52h-15.6l-14.91-.17-14.91-.87s-14.22-2.25-14.74-2.25-18.55-3.47-19.24-3.47-20.46-5.55-20.46-5.55l-25.66-9.36-15.43-7.98-12.83-6.41-11.1-6.76-13.18-8.67-16.47-12.31-13-10.4-30.51-30.51,6.59-6.07-31.9-39.7-19.76,15.95-16.64-19.76-18.2,15.95-44.44-26.06Z"/>
  <polygon class="cls-1" points="271.85 539.89 317.45 488.92 328.2 497.59 338.08 506.08 349 513.54 358.71 519.61 368.25 524.98 377.61 530.88 389.4 537.46 385.59 545.27 360.27 597.63 341.9 588.09 331.15 582.19 313.64 571.1 295.95 558.96 279.31 545.79 271.85 539.89"/>
  <polygon class="cls-1" points="385.59 545.27 360.27 597.63 368.42 601.27 382.29 606.81 388.19 609.41 394.43 611.84 401.36 614.27 410.38 617.56 417.83 619.47 424.94 621.55 432.57 623.8 440.89 625.71 447.48 627.1 453.2 628.31 460.49 630.05 472.1 563.47 462.22 561.91 451.3 559.31 442.8 557.4 434.65 554.63 426.85 552.55 418.53 549.43 413.15 547.17 406.57 544.57 402.4 543.27 389.4 537.46 385.59 545.27"/>
  <polygon class="cls-1" points="460.49 630.05 472.1 563.47 481.17 565.32 492.85 566.71 504.41 567.75 514.35 568.21 525.33 568.67 534 568.9 541.51 568.79 545.9 568.9 560.52 568.5 564.16 634.44 555.84 634.9 550.64 634.9 539.2 635.48 531.57 635.48 521.86 635.48 512.84 635.48 500.36 634.79 491.11 634.21 479.79 632.94 468.58 631.66 460.49 630.05"/>
  <polygon class="cls-1" points="564.16 634.44 560.52 568.5 649.98 554.45 660.73 620.34 564.16 634.44"/>
  <polyline class="cls-1" points="649.98 554.45 660.73 620.34 841.22 591.21 830.82 524.63 651.02 554.45"/>
  <polygon class="cls-1" points="841.22 461.1 857.75 589.36 953.22 574.57 998.06 481.17 990.32 437.43 841.22 461.1"/>
  <polygon class="cls-1" points="962.93 566.71 1032.74 556.3 1026.73 513.39 986.28 519.55 962.93 566.71"/>
  <polygon class="cls-1" points="986.28 519.55 1005.92 480.48 1053.31 473.55 1057.94 508.45 1026.71 513.29 986.28 519.55"/>
  <polygon class="cls-1" points="1070.42 506.83 1026.71 513.29 1032.74 556.3 1076.43 549.6 1070.42 506.83"/>
  <polygon class="cls-1" points="1005.92 480.48 995.75 417.6 1011.7 384.78 1018.41 386.86 1026.71 388.94 1035.98 390.79 1043.37 391.25 1049.15 391.71 1055.16 391.71 1056.32 391.71 1065.33 444.65 1085.45 441.78 1089.14 468.23 1005.92 480.48"/>
  <polygon class="cls-1" points="1109.49 470.77 1112.95 498.28 1139.31 494.58 1135.84 467.07 1109.49 470.77"/>
  <polygon class="cls-1" points="1139.31 494.58 1135.84 467.07 1161.96 462.91 1166.12 491.11 1139.31 494.58"/>
  <polygon class="cls-1" points="1112.95 498.28 1166.12 491.11 1161.96 462.91 1177.91 460.37 1188.08 531.57 1119.43 542.43 1112.95 498.28"/>
  <polygon class="cls-1" points="1177.91 460.37 1188.08 531.57 1315.23 511.46 1303.67 440.26 1177.91 460.37"/>
  <polygon class="cls-1" points="1303.67 440.26 1315.23 511.46 1379.26 501.4 1368.86 429.39 1303.67 440.26"/>
  <polygon class="cls-1" points="1368.86 429.39 1374.41 467.87 1430.58 459.21 1424.57 420.15 1368.86 429.39"/>
  <polygon class="cls-1" points="1374.41 467.87 1379.26 501.4 1418.56 494.58 1413.56 461.84 1374.41 467.87"/>
  <polygon class="cls-1" points="1436.13 491.58 1459.47 487.88 1456.24 464.07 1432.66 467.87 1436.13 491.58"/>
  <polygon class="cls-1" points="1459.47 487.88 1455.08 451.82 1524.89 441.78 1530.67 476.78 1459.47 487.88"/>
  <polygon class="cls-1" points="1524.89 441.78 1522.35 420.15 1473.81 397.26 1447.97 400.49 1455.08 451.82 1524.89 441.78"/>
  <polygon class="cls-1" points="1366.78 415.29 1361.69 378.07 1338.34 382 1343.66 419.22 1366.78 415.29"/>
  <polygon class="cls-1" points="1343.66 419.22 1338.34 382 1309.91 386.4 1316.15 423.38 1343.66 419.22"/>
  <polygon class="cls-1" points="1309.91 386.4 1293.96 389.17 1299.74 426.16 1316.15 423.38 1309.91 386.4"/>
  <polygon class="cls-1" points="1293.96 389.17 1264.83 393.79 1266.91 410.67 1276.85 409.74 1279.4 429.39 1299.74 426.16 1293.96 389.17"/>
  <polygon class="cls-1" points="1266.91 410.67 1276.85 409.74 1279.4 429.39 1269.46 430.78 1266.91 410.67"/>
  <polygon class="cls-1" points="1264.83 393.79 1246.57 396.8 1250.96 433.79 1269.46 430.78 1264.83 393.79"/>
  <polygon class="cls-1" points="1011.47 229.2 1025 201.46 1111.34 243.77 1104.75 256.25 1129.37 268.04 1107.87 311.04 980.26 249.31 995.75 221.23 1011.47 229.2"/>
  <polygon class="cls-1" points="980.26 249.31 1107.87 311.04 1087.06 355.07 1062.44 343.98 1054.82 359.06 967.78 315.54 975.06 300.63 958.42 293.35 980.26 249.31"/>
  <polygon class="cls-1" points="1167.2 99.36 1160.23 114.77 1165.08 117.55 1145.32 158.81 1117.75 145.46 1145.7 89.13 1167.2 99.36"/>
  <polygon class="cls-1" points="1145.7 89.13 1174.1 31.9 1208.99 48.08 1181.38 106.11 1145.7 89.13"/>
  <polygon class="cls-1" points="1208.99 48.08 1242.85 62.89 1214.32 121.71 1181.38 106.11 1208.99 48.08"/>
  <polygon class="cls-1" points="1214.32 121.71 1247.61 138.01 1276.75 77.59 1242.85 62.89 1214.32 121.71"/>
  <polygon class="cls-1" points="1276.75 77.59 1319.88 96.44 1299.74 135.35 1258.01 116.44 1276.75 77.59"/>
  <polygon class="cls-1" points="1306.8 121.71 1319.88 96.44 1375.73 123.96 1354.44 167.41 1313.49 148.24 1322.16 129.34 1306.8 121.71"/>
  <polygon class="cls-1" points="1313.49 148.24 1354.44 167.41 1337.78 201.38 1297.54 182.04 1313.49 148.24"/>
  <polygon class="cls-1" points="1247.61 138.01 1258.01 116.44 1299.74 135.35 1288.95 158.81 1247.61 138.01"/>
  <polygon class="cls-1" points="1180.51 125.35 1232.35 150.84 1213.11 192.97 1159.19 167.41 1180.51 125.35"/>
</svg>