<?xml version="1.0" encoding="UTF-8"?>
<svg id="Layer_2" data-name="Layer 2" xmlns="http://www.w3.org/2000/svg" viewBox="0 0 1678.68 681.94">
  <defs>
    <style>
      .cls-1 {
        fill: #fff;
      }
    </style>
  </defs>
  <g id="Base">
    <path class="cls-1" d="m1678.68,458.22l-156.15-79.29-255.9,42.06-4.13-28.89-83.92,13.07,17.89-6.88,24.76-13.76,17.2-16.51,13.07-20.64,8.25-22.01,2.06-18.57.69-19.95-4.82-21.32,17.89-4.82-11.01-30.04-17.2,10.78-8.25-10.78-17.89-19.49-9.63-6.19,15.13-34.4,199.49,94.93,61.91-125.2-107.31-52.97,11.69-22.01-30.27-14.45,7.57-13.07L1292.08,0l-7.57,19.95-1.52,4.15-3,6-3.74,6.36-28.2,61.22-40.59-14.45,15.82-64.66-22.7-4.13-24.31-2.98-16.74-.46-26.6.46-21.1,2.52-22.24,4.36-23.16,5.96-14.68,4.82-18.57,8.03-16.05,7.57-16.05,10.09-14.68,9.17-10.09,8.03-17.43-21.78-298.91,239.89-13.06,7.53-11.01,1.47h-11.94l-10-5-9-6-9-11-105.48-129.3-20.65,16.67-79.88-95.37-25-20-20-10v7.33l8,4.67-28,48L0,145.1s39,55,42,55h20.69l48.31,56,4.27,5.26-1.1.84-10.78,10.66-8.71,10.78-8.03,13.53-5.96,13.53-4.59,16.97-2.06,7.8-1.83,13.07v20.41l2.06,14.45,4.82,20.18,8.03,16.51,8.25,14.68,12.38,15.59,14.68,12.15,12.15,7.8,13.07,6.88,17.43,5.96,16.05,3.9,17.43,1.15-24.99,6.42,2.75,6.88,37.83-11.24,2.29-2.52,16.51-2.29,13.3-4.59,11.46-5.04,11.92-7.34,10.55-6.88,8.03-7.34,9.63-10.55,6.65-8.94,5.27-8.03,2.06-2.98,46.55,56.18-55.95,45.63,10.78,11.24,12.61,15.82,13.3,12.61,14.68,13.3,13.99,11.47,12.61,10.32,16.51,11.92,19.26,11.69,16.51,9.17,21.32,10.09,14.45,6.65,12.15,5.27,13.3,4.13,16.97,5.5,19.49,4.82,14.45,3.9,17.43,2.98,18.34,2.52,15.82,1.38,16.28,1.61h36l22.7-1.61,22.24-3.21,19.95-2.75,13.53-2.75,14.9-2.06,13.07-1.61,57.1-8.48-3.67-28.43,225.31-35.58,4.6,30.69,118.62-18.96-5.61-30.3,508-80.22,19.26-38.44Z"/>
  </g>
</svg>