<?xml version="1.0" encoding="UTF-8"?>
<svg id="Layer_2" data-name="Layer 2" xmlns="http://www.w3.org/2000/svg" viewBox="0 0 1681.79 684.31">
  <defs>
    <style>
      .cls-1 {
        fill: #fff;
      }

      .cls-1, .cls-2 {
        stroke: #000;
        stroke-miterlimit: 10;
        stroke-width: 2px;
      }

      .cls-2 {
        fill: #771e7e;
      }
    </style>
  </defs>
  <g id="Base">
    <path class="cls-2" d="m1680.45,459.6l-156.15-79.29-255.9,42.06-4.13-28.89-83.92,13.07,17.89-6.88,24.76-13.76,17.2-16.51,13.07-20.64,8.25-22.01,2.06-18.57.69-19.95-4.82-21.32,17.89-4.82-11.01-30.04-17.2,10.78-8.25-10.78-17.89-19.49-9.63-6.19,15.13-34.4,199.49,94.93,61.91-125.2-107.31-52.97,11.69-22.01-30.27-14.45,7.57-13.07L1293.85,1.38l-7.57,19.95-1.52,4.15-3,6-3.74,6.36-28.2,61.22-40.59-14.45,15.82-64.66-22.7-4.13-24.31-2.98-16.74-.46-26.6.46-21.1,2.52-22.24,4.36-23.16,5.96-14.68,4.82-18.57,8.03-16.05,7.57-16.05,10.09-14.68,9.17-10.09,8.03-17.43-21.78-298.91,239.89-13.06,7.53-11.01,1.47h-11.94l-10-5-9-6-9-11-105.48-129.3-20.65,16.67-79.88-95.37-25-20-20-10v7.33l8,4.67-28,48L1.76,146.48s39,55,42,55h20.69l48.31,56,4.27,5.26-1.1.84-10.78,10.66-8.71,10.78-8.03,13.53-5.96,13.53-4.59,16.97-2.06,7.8-1.83,13.07v20.41l2.06,14.45,4.82,20.18,8.03,16.51,8.25,14.68,12.38,15.59,14.68,12.15,12.15,7.8,13.07,6.88,17.43,5.96,16.05,3.9,17.43,1.15-24.99,6.42,2.75,6.88,37.83-11.24,2.29-2.52,16.51-2.29,13.3-4.59,11.46-5.04,11.92-7.34,10.55-6.88,8.03-7.34,9.63-10.55,6.65-8.94,5.27-8.03,2.06-2.98,46.55,56.18-55.95,45.63,10.78,11.24,12.61,15.82,13.3,12.61,14.68,13.3,13.99,11.47,12.61,10.32,16.51,11.92,19.26,11.69,16.51,9.17,21.32,10.09,14.45,6.65,12.15,5.27,13.3,4.13,16.97,5.5,19.49,4.82,14.45,3.9,17.43,2.98,18.34,2.52,15.82,1.38,16.28,1.61h36l22.7-1.61,22.24-3.21,19.95-2.75,13.53-2.75,14.9-2.06,13.07-1.61,57.1-8.48-3.67-28.43,225.31-35.58,4.6,30.69,118.62-18.96-5.61-30.3,508-80.22,19.26-38.44Z"/>
  </g>
  <g id="Rooms">
    <polygon id="N328" class="cls-1" points="1031.99 39.93 1069.76 119.48 1104.76 105.48 1132.76 100.48 1158.76 98.48 1180.76 99.48 1198.76 101.48 1204.76 102.48 1209.24 84.61 1225.06 19.95 1178.05 12.84 1134.71 12.84 1113.62 15.37 1091.38 19.72 1068.22 25.68 1053.54 30.5 1031.99 39.93"/>
    <polygon id="N325" class="cls-1" points="1031.99 39.93 1018.92 46.09 1002.87 56.18 988.19 65.35 978.1 73.38 906.76 131.48 961.76 199.48 1002.76 167.48 1027.76 147.48 1045.76 133.48 1060.76 125.48 1069.76 119.48 1031.99 39.93"/>
    <polygon id="N320" class="cls-1" points="817.76 339.48 826.76 332.48 832.76 337.48 843.76 327.48 828.76 307.48 875.76 270.48 908.76 309.48 839.76 366.48 817.76 339.48"/>
    <polygon id="N319" class="cls-1" points="764.76 360.48 789.76 389.48 798.76 381.48 806.76 391.48 818.76 381.48 787.25 342.35 764.76 360.48"/>
    <polygon id="N318a" class="cls-1" points="764.76 360.48 730.76 387.48 755.76 416.48 789.76 389.48 764.76 360.48"/>
    <polygon id="N318" class="cls-1" points="730.76 387.48 738.93 381 684.76 315.48 675.76 322.48 664.76 329.48 653.76 333.48 642.76 335.48 660.76 418.48 680.76 414.48 694.76 463.48 704.7 460.35 714.76 456.48 724.76 451.48 731.76 448.48 740.76 443.48 748.76 438.48 753.76 435.48 760.26 430.45 764.76 426.55 755.76 416.48 730.76 387.48"/>
    <polygon id="N317" class="cls-1" points="680.76 414.48 660.76 418.48 648.76 420.48 637.76 421.48 625.59 421.48 621.24 421.48 616.76 472.48 626.74 472.48 638.89 472.48 650.36 472.48 661.76 471.48 672.76 469.48 680.76 468.48 685.76 466.48 694.76 463.48 680.76 414.48"/>
    <polygon id="N311" class="cls-1" points="660.76 418.48 642.76 335.48 629.49 335.48 618.76 333.48 608.76 331.48 599.76 327.48 590.76 321.48 584.55 315.48 578.76 309.48 512.76 363.48 518.76 371.48 528.76 380.48 536.76 386.48 547.76 395.48 557.76 400.48 570.76 407.48 582.76 412.48 597.39 416.48 606.76 419.48 621.24 421.48 637.76 421.48 648.76 420.48 660.76 418.48"/>
    <polygon id="N310" class="cls-1" points="455.76 265.48 508.76 224.48 578.76 309.48 526.63 352.14 455.76 265.48"/>
    <polygon id="N309" class="cls-1" points="508.76 224.48 396.52 84.48 385.76 76.48 340.57 150.48 441.76 276.48 455.76 265.48 508.76 224.48"/>
    <polygon id="N303a" class="cls-1" points="284.76 361.48 276.76 401.48 309.76 420.48 316.76 412.48 320.76 400.48 324.37 390.98 325.76 377.48 327.76 368.48 327.76 365.94 284.76 361.48"/>
    <polygon id="N303_Atrium_" data-name="N303 (Atrium)" class="cls-1" points="143.76 299.48 161.76 285.48 178.76 279.48 192.6 276.48 207.58 276.48 219.76 278.48 229.76 280.48 240.76 286.48 251.76 293.48 263.76 304.48 271.76 314.48 279.76 329.48 284.76 343.48 284.76 361.48 276.76 401.48 271.76 415.48 262.76 426.48 246.76 440.48 228.76 447.48 220.76 450.48 204.76 452.48 192.91 452.48 177.76 450.48 164.76 446.48 151.76 440.48 140.76 433.48 129.76 422.48 141.76 411.48 134.76 404.48 128.76 392.48 124.76 380.48 122.76 366.48 122.76 355.24 124.12 342.35 127.76 328.48 132.76 316.48 143.76 299.48"/>
    <polygon id="N346" class="cls-1" points="692.76 519.48 728.76 514.48 729.92 519.48 783.76 510.48 789.76 547.48 700.76 563.48 692.76 519.48"/>
    <polygon id="N345" class="cls-1" points="694.76 530.48 677.76 532.48 694.76 648.28 827 629.77 808.76 513.48 784.88 517.05 789.76 547.48 700.76 563.48 694.76 530.48"/>
    <polygon id="N344" class="cls-1" points="808.76 513.48 830.36 510.48 835.76 540.48 954.76 522.48 969.39 607.28 827 629.77 808.76 513.48"/>
    <polygon id="N342" class="cls-1" points="952.76 502.48 954.76 522.48 969.39 607.28 1021.51 599.05 1062.41 510.48 1053.85 463.48 971.76 475.48 973.76 485.48 958.76 487.48 960.76 501.48 952.76 502.48"/>
    <polygon id="N341" class="cls-1" points="1120.76 299.48 1246.73 359.08 1240.19 369.4 1222.99 385.91 1198.23 399.67 1180.34 406.55 1157.76 408.48 1142.76 407.48 1122.76 403.48 1110.76 397.48 1121.76 377.48 1105.76 369.48 1097.76 362.48 1091.76 356.48 1120.76 299.48"/>
    <polygon id="N339" class="cls-1" points="1120.76 299.48 1091.76 356.48 1083.76 344.48 1077.76 331.48 1073.76 316.48 1072.76 305.48 1072.76 290.46 1073.76 280.48 1077.76 270.48 1081.76 261.48 1085.76 253.48 1091.76 245.52 1098.76 238.48 1105.76 231.48 1112.76 226.48 1114.76 225.48 1147.76 241.48 1120.76 299.48"/>
    <polygon id="N340" class="cls-1" points="1147.76 241.48 1120.76 299.48 1246.73 359.08 1253.26 348.77 1261.52 326.75 1263.58 308.18 1264.01 295.62 1147.76 241.48"/>
    <polygon id="N328a" class="cls-1" points="1069.76 119.48 1104.76 105.48 1112.8 104.05 1120.31 135.06 1083.76 147.48 1069.76 119.48"/>
    <polygon id="N329" class="cls-1" points="1248.14 119.48 1227.76 162.48 1275.76 184.48 1296.76 143.48 1248.14 119.48"/>
    <polygon id="N332" class="cls-1" points="1275.76 184.48 1307.76 200.48 1328.76 158.48 1296.76 143.48 1275.76 184.48"/>
    <polygon id="N331" class="cls-1" points="1249.82 99.06 1368.76 158.48 1398.3 96.5 1382.59 88.74 1394.28 66.73 1287.02 19.38 1249.82 99.06"/>
    <polygon id="N334" class="cls-1" points="1398.3 96.5 1434.72 114.47 1404.76 175.48 1368.76 158.48 1398.3 96.5"/>
    <polygon id="N336" class="cls-1" points="1434.76 114.48 1404.76 175.48 1397.76 191.48 1451.76 218.48 1489.76 141.48 1434.76 114.48"/>
    <polygon id="N303_Entrance_" data-name="N303 (Entrance)" class="cls-1" points="52.58 139.29 96.76 197.48 64.45 201.48 114.76 259.94 133.76 249.48 148.76 242.48 166.76 235.48 182.76 233.48 198.76 232.48 210.76 232.48 225.76 234.48 242.76 239.48 252.76 243.48 272.76 255.48 287.76 266.48 299.76 279.48 308.76 292.48 311.76 298.48 361.76 258.48 287.76 169.48 326.76 100.48 52.58 139.29"/>
    <polygon id="Reception" class="cls-1" points="340.57 150.48 367.41 183.9 332.76 212.48 296.76 169.48 321.76 128.48 340.57 150.48"/>
    <polyline id="N327" class="cls-1" points="1158.76 98.48 1180.76 99.48 1198.76 101.48 1204.76 102.48 1197.76 137.48 1182.76 134.48 1172.76 134.48 1163.76 134.48 1158.04 134.48"/>
    <polygon id="N328b" class="cls-1" points="1112.8 104.05 1120.31 135.06 1125.24 151.98 1134.76 149.48 1143.76 148.48 1152.76 148.48 1157.76 148.48 1158.76 98.48 1132.76 100.48 1112.8 104.05"/>
  </g>
</svg>