<?xml version="1.0" encoding="UTF-8"?>
<svg id="Layer_2" data-name="Layer 2" xmlns="http://www.w3.org/2000/svg" viewBox="0 0 130.7 116.71">
  <defs>
    <style>
      .cls-1 {
        fill: #fff;
      }

      .cls-2 {
        fill: #781d7d;
      }
    </style>
  </defs>
  <g id="Layer_2-2" data-name="Layer 2">
    <g>
      <polygon class="cls-2" points="15.36 26.6 20.18 37.38 79.34 11.69 73.83 0 15.36 26.6"/>
      <polygon class="cls-2" points="9.17 97.45 2.52 102.04 2.52 105.71 0 107.08 4.59 116.71 25.68 107.08 22.01 94.24 12.84 99.52 9.17 97.45"/>
      <path class="cls-2" d="m122.9,58.7l-8.48,4.13-2.75-3.44-5.73,2.29,1.61,4.36-6.19,2.75-6.42-15.82,14.22-6.19.46,1.61,6.42-2.75-5.04-12.61-7.34,3.21.92,1.38-10.32,4.59-11.01-24.54-60.54,26.37,17.2,42.65-4.36,2.98,5.73,12.84,51.36-22.24,3.21,5.73,2.52-.46,2.29,5.5,30.04-12.38-7.8-19.95Zm-60.54,18.11l-2.06-4.36-6.88,1.61-8.71-22.24,29.12-12.15,8.71,18.34,8.94-3.44,2.98,7.11-32.1,15.13Z"/>
    </g>
    <path class="cls-1" d="m84.67,73.19c-4.86-3.37-5.48,4.41-2.8,6.87,1.1,1.11,2.44-.05,3.67.09h0c3.98,2.3,6.01-5.63,3.2-7.53,0,0,0-.02,0-.03.02-.02.05-.04.04-.08.18-.18.31-.41.43-.64.36.15.62.47.87.76,0,0,0,0,0,0,.21.28.38.58.52.9.77,2.27.15,5.13-1.36,7-1.48,1.63-2.82.59-4.43.59-3,1.51-5.13-1.73-5.34-4.39,0,0,0-.02.01-.03-.22-.98-.2-2.02.13-2.97,0,0,.01,0,.02-.01,0,0-.01,0-.02-.01,0,0,0,0,0-.01.69-2.14,3.16-2.82,5-1.62-.1-.93.17-1.87.73-2.61,0,0,0,0,0,0,.73-.87,1.9-1.45,3.04-1.3.83,1.68.21,3.91-1.51,4.71,0,0,0,0,0,0-.45.26-.99.32-1.48.42-.26.04-.51.13-.72-.09Zm2.4-1.56c.51-.5.87-1.33.77-2.02,0-.17-.05-.34-.09-.5-.27-.12-.59.16-.85.17-.72.45-1.3,1.18-1.39,2.05h-.01s0,.01.01.01c0,.07-.01.13-.01.2-.04.04-.04.11,0,.14-.14,1.22,1.08.36,1.57-.06Zm.71-2.58s-.01,0-.02,0c0,0,.01,0,.02,0Z"/>
  </g>
</svg>