<?xml version="1.0" encoding="UTF-8"?>
<svg id="Layer_2" data-name="Layer 2" xmlns="http://www.w3.org/2000/svg" viewBox="0 0 182.75 75.78">
  <defs>
    <style>
      .cls-1 {
        fill: #fff;
      }

      .cls-2 {
        fill: #781d7d;
      }

      .cls-3 {
        fill: #8f5496;
      }
    </style>
  </defs>
  <g id="Layer_2-2" data-name="Layer 2">
    <g>
      <path class="cls-2" d="m171.4,53.24h-2.52l-5.39-7.45c5.16-4.93,4.59-9.4,4.7-10.55.11-1.15.8-14.79-12.27-15.71s-16.28,7.57-16.28,7.57l-9.06-10.2,3.44-4.24s-5.5-4.93-14.68-9.86-23.73-1.83-23.73-1.83L2.41,15.41l-2.41,5.39,8.14,9.84,39.32-6.51-2.64,5.71s-12.96-3.42-15.94,7.02c-2.98,10.43,4.47,15.59,4.47,15.59l-1.83,4.13-21.67-10.66-7.68,14.9s5.5,2.52,24.42,11.58c18.92,9.06,33.82-2.87,33.82-2.87l36.11-29.81c7.45-4.82,12.27,1.15,12.27,1.15l21.32,25.91c10.2,9.29,20.29,5.73,20.29,5.73l32.33-4.93-11.35-14.33Zm-22.85,5.07s-7.03,1.68-10.7-4.59l-19.87-24.1s-9.78-12.59-27.36-3.72l-39.29,30.88s-9.02,7.18-19.26,1.53l17.12-34.85,18.5-2.9v-1.71l26.14-4.25s16.82-4.18,27.67,4.79l18.34,22.12s7.03,11.16,19.26,6.27l7.18,7.49-17.73,3.06Z"/>
      <path class="cls-3" d="m139.84,41.49l-18.34-22.12c-10.85-8.97-27.67-4.79-27.67-4.79l-26.14,4.25v1.71l-18.5,2.9-17.12,34.85c10.24,5.66,19.26-1.53,19.26-1.53l39.29-30.88c17.58-8.87,27.36,3.72,27.36,3.72l19.87,24.1c3.67,6.27,10.7,4.59,10.7,4.59l17.73-3.06-7.18-7.49c-12.23,4.89-19.26-6.27-19.26-6.27Z"/>
    </g>
    <path class="cls-1" d="m108.33,9.34c-4.86-3.37-5.48,4.41-2.8,6.87,1.1,1.11,2.44-.05,3.67.09h0c3.98,2.3,6.01-5.63,3.2-7.53,0,0,0-.02,0-.03.02-.02.05-.04.04-.08.18-.18.31-.41.43-.64.36.15.62.47.87.76,0,0,0,0,0,0,.21.28.38.58.52.9.77,2.27.15,5.13-1.36,7-1.48,1.63-2.82.59-4.43.59-3,1.51-5.13-1.73-5.34-4.39,0,0,0-.02.01-.03-.22-.98-.2-2.02.13-2.97,0,0,.01,0,.02-.01,0,0-.01,0-.02-.01,0,0,0,0,0-.01.69-2.14,3.16-2.82,5-1.62-.1-.93.17-1.87.73-2.61,0,0,0,0,0,0,.73-.87,1.9-1.45,3.04-1.3.83,1.68.21,3.91-1.51,4.71,0,0,0,0,0,0-.45.26-.99.32-1.48.42-.26.04-.51.13-.72-.09Zm2.4-1.56c.51-.5.87-1.33.77-2.02,0-.17-.05-.34-.09-.5-.27-.12-.59.16-.85.17-.72.45-1.3,1.18-1.39,2.05h-.01s0,.01.01.01c0,.07-.01.13-.01.2-.04.04-.04.11,0,.14-.14,1.22,1.08.36,1.57-.06Zm.71-2.58s-.01,0-.02,0c0,0,.01,0,.02,0Z"/>
  </g>
</svg>