<?xml version="1.0" encoding="UTF-8"?>
<svg id="Layer_2" data-name="Layer 2" xmlns="http://www.w3.org/2000/svg" viewBox="0 0 149.99 111.78">
  <defs>
    <style>
      .cls-1 {
        fill: #fff;
      }

      .cls-2 {
        fill: #781d7d;
      }
    </style>
  </defs>
  <g id="Layer_2-2" data-name="Layer 2">
    <g>
      <polygon class="cls-2" points="0 16.28 54.57 0 59.62 15.36 5.73 32.33 0 16.28"/>
      <polygon class="cls-2" points="8.75 39.78 62.63 23.96 70.66 51.25 75.24 50.1 87.39 91.38 92.44 89.54 97.48 89.77 81.43 36.11 108.26 28.32 108.26 23.96 126.38 18.23 149.99 97.57 104.36 111.78 100.01 98.25 93.13 97.34 56.21 109.26 34.66 108.57 25.03 75.1 20.44 76.24 8.75 39.78"/>
    </g>
    <path class="cls-1" d="m40.76,71.97c-4.86-3.37-5.48,4.41-2.8,6.87,1.1,1.11,2.44-.05,3.67.09h0c3.98,2.3,6.01-5.63,3.2-7.53,0,0,0-.02,0-.03.02-.02.05-.04.04-.08.18-.18.31-.41.43-.64.36.15.62.47.87.76,0,0,0,0,0,0,.21.28.38.58.52.9.77,2.27.15,5.13-1.36,7-1.48,1.63-2.82.59-4.43.59-3,1.51-5.13-1.73-5.34-4.39,0,0,0-.02.01-.03-.22-.98-.2-2.02.13-2.97,0,0,.01,0,.02-.01,0,0-.01,0-.02-.01,0,0,0,0,0-.01.69-2.14,3.16-2.82,5-1.62-.1-.93.17-1.87.73-2.61,0,0,0,0,0,0,.73-.87,1.9-1.45,3.04-1.3.83,1.68.21,3.91-1.51,4.71,0,0,0,0,0,0-.45.26-.99.32-1.48.42-.26.04-.51.13-.72-.09Zm2.4-1.56c.51-.5.87-1.33.77-2.02,0-.17-.05-.34-.09-.5-.27-.12-.59.16-.85.17-.72.45-1.3,1.18-1.39,2.05h-.01s0,.01.01.01c0,.07-.01.13-.01.2-.04.04-.04.11,0,.14-.14,1.22,1.08.36,1.57-.06Zm.71-2.58s-.01,0-.02,0c0,0,.01,0,.02,0Z"/>
    <path class="cls-1" d="m123.04,88.52c-4.86-3.37-5.48,4.41-2.8,6.87,1.1,1.11,2.44-.05,3.67.09h0c3.98,2.3,6.01-5.63,3.2-7.53,0,0,0-.02,0-.03.02-.02.05-.04.04-.08.18-.18.31-.41.43-.64.36.15.62.47.87.76,0,0,0,0,0,0,.21.28.38.58.52.9.77,2.27.15,5.13-1.36,7-1.48,1.63-2.82.59-4.43.59-3,1.51-5.13-1.73-5.34-4.39,0,0,0-.02.01-.03-.22-.98-.2-2.02.13-2.97,0,0,.01,0,.02-.01,0,0-.01,0-.02-.01,0,0,0,0,0-.01.69-2.14,3.16-2.82,5-1.62-.1-.93.17-1.87.73-2.61,0,0,0,0,0,0,.73-.87,1.9-1.45,3.04-1.3.83,1.68.21,3.91-1.51,4.71,0,0,0,0,0,0-.45.26-.99.32-1.48.42-.26.04-.51.13-.72-.09Zm2.4-1.56c.51-.5.87-1.33.77-2.02,0-.17-.05-.34-.09-.5-.27-.12-.59.16-.85.17-.72.45-1.3,1.18-1.39,2.05h-.01s0,.01.01.01c0,.07-.01.13-.01.2-.04.04-.04.11,0,.14-.14,1.22,1.08.36,1.57-.06Zm.71-2.58s-.01,0-.02,0c0,0,.01,0,.02,0Z"/>
  </g>
</svg>