<?xml version="1.0" encoding="UTF-8"?>
<svg id="Layer_2" data-name="Layer 2" xmlns="http://www.w3.org/2000/svg" viewBox="0 0 313.98 389.09">
  <defs>
    <style>
      .cls-1 {
        fill: #fff;
      }

      .cls-2 {
        fill: #af85d3;
      }
    </style>
  </defs>
  <g id="Layer_1-2" data-name="Layer 1">
    <g>
      <path class="cls-2" d="m67.5,158.77c2.5,0,3.6,1.1,3.6,3.6v38.8c0,4.3,0,7.5-1.8,12.4l-5,13.6c-.7,2-1.9,3.6-4,3.6h-13.3c-2.2,0-4-.9-4.6-3l-4.6-16.3c-.4-1.3-1-1.7-1.8-1.7h-.9c-.8,0-1.4.4-1.8,1.7l-4.7,16.3c-.6,2-2.1,3-4.2,3h-13.2c-2.2,0-3.7-1.5-4.4-3.6l-5-13.8c-1.8-4.9-1.8-8.1-1.8-12.4v-38.6c0-2.5,1.1-3.6,3.6-3.6h15.4c2.5,0,3.6,1.1,3.6,3.6v36.8l5.8-12.6c1.1-2.3,2.7-3.1,5.3-3.1h4.2c2.6,0,4.2.8,5.3,3.1l5.8,12.6v-36.8c0-2.5,1-3.6,3.6-3.6h14.9Z"/>
      <path class="cls-1" d="m98.1,230.78c-2.5,0-3.6-1.1-3.6-3.6v-64.8c0-2.5,1.1-3.6,3.6-3.6h44.6c2.5,0,3.6,1.1,3.6,3.6v11.9c0,2.5-1.1,3.6-3.6,3.6h-25.5v10.4h17.4c2.5,0,3.6,1.1,3.6,3.6v12c0,2.5-1.1,3.6-3.6,3.6h-17.4v19.7c0,2.5-1.1,3.6-3.6,3.6h-15.5Z"/>
    </g>
    <path class="cls-1" d="m119.49,69c-34.5,0-65.74,13.92-88.43,36.45l22.63,22.63c16.9-16.74,40.14-27.08,65.8-27.08,51.64,0,93.5,41.86,93.5,93.5s-41.86,93.5-93.5,93.5c-25.66,0-48.91-10.34-65.8-27.08l-22.63,22.63c22.69,22.53,53.93,36.45,88.43,36.45,69.31,0,125.5-56.19,125.5-125.5s-56.19-125.5-125.5-125.5Z"/>
    <polygon class="cls-2" points="119.89 130.09 94.45 104.65 119.99 0 145.42 104.55 119.89 130.09"/>
    <polygon class="cls-2" points="119.99 259 145.42 284.43 119.89 389.09 94.45 284.53 119.99 259"/>
    <polygon class="cls-2" points="183.89 193.99 209.32 168.56 313.98 194.09 209.43 219.53 183.89 193.99"/>
  </g>
</svg>