<?xml version="1.0" encoding="UTF-8"?>
<svg id="Layer_2" data-name="Layer 2" xmlns="http://www.w3.org/2000/svg" viewBox="0 0 319.98 389.09">
  <defs>
    <style>
      .cls-1, .cls-2 {
        fill: #fff;
      }

      .cls-2 {
        letter-spacing: .1em;
      }

      .cls-3, .cls-4 {
        fill: #af85d3;
      }

      .cls-5 {
        font-family: Bungee-Regular, Bungee;
        font-size: 100px;
      }

      .cls-4 {
        letter-spacing: .1em;
      }
    </style>
  </defs>
  <g id="Layer_1-2" data-name="Layer 1">
    <text class="cls-5" transform="translate(0 230.78)"><tspan class="cls-4" x="0" y="0">w</tspan><tspan class="cls-2" x="93.6" y="0">F</tspan></text>
    <path class="cls-1" d="m125.49,69c-34.5,0-65.74,13.92-88.43,36.45l22.63,22.63c16.9-16.74,40.14-27.08,65.8-27.08,51.64,0,93.5,41.86,93.5,93.5s-41.86,93.5-93.5,93.5c-25.66,0-48.91-10.34-65.8-27.08l-22.63,22.63c22.69,22.53,53.93,36.45,88.43,36.45,69.31,0,125.5-56.19,125.5-125.5s-56.19-125.5-125.5-125.5Z"/>
    <polygon class="cls-3" points="125.89 130.09 100.45 104.65 125.99 0 151.42 104.55 125.89 130.09"/>
    <polygon class="cls-3" points="125.99 259 151.42 284.43 125.89 389.09 100.45 284.53 125.99 259"/>
    <polygon class="cls-3" points="189.89 193.99 215.33 168.56 319.98 194.09 215.43 219.53 189.89 193.99"/>
  </g>
</svg>